<?xml version="1.0" encoding="UTF-8"?>
<svg width="512" height="512" version="1.1" viewBox="0 0 135.47 135.47" xmlns="http://www.w3.org/2000/svg"><path d="m42.467 133.88c-15.003 0-23.629 0-32.255-8.626-8.626-8.626-8.626-17.252-8.626-32.255v-50.529c0-15.004 0-23.629 8.626-32.255 8.626-8.626 17.252-8.626 32.255-8.626h50.529c15.004 0 23.629 0 32.255 8.626 8.626 8.626 8.626 17.252 8.626 32.255v50.529c0 15.003 0 23.629-8.626 32.255-8.626 8.626-17.252 8.626-32.255 8.626z" fill-rule="evenodd" stroke-width=".97656"/><path d="m36.535 45.124v29.72c-0.014 1.2453-0.20255 2.2878-0.56636 3.1273-0.34983 0.83956-0.86774 1.4762-1.5534 1.9099-0.68563 0.41978-1.5252 0.62991-2.5187 0.62991-0.95151 0-1.77-0.19627-2.4556-0.58805-0.68563-0.39179-1.2246-0.97238-1.6164-1.742-0.37779-0.7836-0.58742-1.728-0.62941-2.8334h-10.347c-0.01399 3.0784 0.62261 5.6043 1.9099 7.5773 1.3013 1.973 3.0437 3.4282 5.2265 4.3656 2.1969 0.93751 4.6383 1.4061 7.3251 1.4061 3.0363 0 5.7086-0.5734 8.0175-1.7208 2.3228-1.1474 4.1423-2.7567 5.4575-4.8275 1.3153-2.0849 1.9796-4.5198 1.9937-7.3042v-29.72h-10.243zm15.415 0v42.986h15.889c4.3658 0 8.1371-0.85343 11.313-2.5605 3.1763-1.7211 5.6178-4.1909 7.3251-7.4093 1.7211-3.2183 2.5817-7.0661 2.5817-11.544 0-4.4637-0.86062-8.2977-2.5817-11.502-1.7211-3.2183-4.1698-5.6816-7.3463-7.3886-3.1623-1.7211-6.933-2.5817-11.313-2.5817h-15.868zm10.39 8.8579h4.9532c2.4627 0 4.5338 0.41258 6.2129 1.2382 1.6931 0.81157 2.9736 2.1408 3.8412 3.9877 0.86756 1.8331 1.3012 4.2962 1.3012 7.3886s-0.43365 5.5689-1.3012 7.4299c-0.85356 1.847-2.1201 3.1834-3.7991 4.0089-1.6651 0.81157-3.7007 1.2175-6.1076 1.2175h-5.1003v-25.271zm27.924 27.619v10.807h28.35v-10.807z" fill="#fff" stroke-width="1.4776"/></svg>
